<?xml version="1.0" encoding="utf-8"?>
<svg id="master-artboard" viewBox="0 0 450 450" version="1.1" xmlns="http://www.w3.org/2000/svg" x="0px" y="0px" width="450px" height="450px" enable-background="new 0 0 1400 1400"><rect id="ee-background" x="0" y="0" width="450" height="450" style="fill: white; fill-opacity: 0; pointer-events: none;"/>

<g transform="matrix(1, 0, 0, 1, -805.9160766601562, -176.67230224609375)">
			<g>
				<g>
					<path fill="#FFFFFF" d="M1011,290c-34.6,0-62.6,28-62.6,62.6s28,62.6,62.6,62.6s62.6-28,62.6-62.6S1045.6,290,1011,290z&#10;&#9;&#9;&#9;&#9;&#9;&#9; M1057,319.1c4.2,5.7,7.3,12.2,9.1,19.2l-3.1,5.4c-1-6-3.1-11.7-6-16.9V319.1z M1051.5,312.7v6.2c-3.8-4.6-8.4-8.5-13.6-11.6&#10;&#9;&#9;&#9;&#9;&#9;&#9;l-3.9-6.7C1040.6,303.5,1046.5,307.6,1051.5,312.7z M1038.2,323.1c3,0,5.4,2.4,5.4,5.4c0,3-2.4,5.4-5.4,5.4&#10;&#9;&#9;&#9;&#9;&#9;&#9;c-3,0-5.4-2.4-5.4-5.4C1032.8,325.5,1035.2,323.1,1038.2,323.1z M1043.9,341.1c6.4,0,11.5,5.2,11.5,11.5&#10;&#9;&#9;&#9;&#9;&#9;&#9;c0,6.4-5.2,11.5-11.5,11.5s-11.5-5.2-11.5-11.5C1032.3,346.3,1037.5,341.1,1043.9,341.1z M1011,295.7c5.2,0,10.3,0.7,15.1,2&#10;&#9;&#9;&#9;&#9;&#9;&#9;l3.1,5.4c-5.5-2-11.4-3.1-17.6-3.2l-6.7-3.9C1006.9,295.8,1009,295.7,1011,295.7z M996.6,297.6l5.4,3.1c-6,1-11.7,3.1-16.9,6&#10;&#9;&#9;&#9;&#9;&#9;&#9;h-7.7C983.2,302.5,989.6,299.4,996.6,297.6z M954.1,352.6c0-5.2,0.7-10.3,2-15.1l5.4-3.1c-2,5.5-3.1,11.4-3.2,17.6l-3.9,6.7&#10;&#9;&#9;&#9;&#9;&#9;&#9;C954.2,356.7,954.1,354.7,954.1,352.6z M965.1,386.2c-4.2-5.7-7.3-12.2-9.1-19.2l3.1-5.4c1,6,3.1,11.7,6,16.9V386.2z&#10;&#9;&#9;&#9;&#9;&#9;&#9; M965.7,325.8l-6.7,3.9c2.9-6.6,7-12.5,12.1-17.5h6.2C972.7,316,968.7,320.6,965.7,325.8z M970.5,392.6v-6.2&#10;&#9;&#9;&#9;&#9;&#9;&#9;c3.8,4.6,8.4,8.5,13.6,11.6l3.9,6.7C981.4,401.8,975.5,397.7,970.5,392.6z M1011,409.6c-5.2,0-10.3-0.7-15.1-2l-3.1-5.4&#10;&#9;&#9;&#9;&#9;&#9;&#9;c5.5,2,11.4,3.1,17.6,3.2l6.7,3.9C1015.1,409.4,1013.1,409.6,1011,409.6z M1025.4,407.7l-5.4-3.1c6-1,11.7-3.1,16.9-6h7.7&#10;&#9;&#9;&#9;&#9;&#9;&#9;C1038.9,402.8,1032.4,405.9,1025.4,407.7z M1051,393.1h-6.2c4.6-3.8,8.5-8.4,11.6-13.6l6.7-3.9&#10;&#9;&#9;&#9;&#9;&#9;&#9;C1060.2,382.2,1056.1,388.2,1051,393.1z M1060.6,370.8c2-5.5,3.1-11.4,3.2-17.6l3.9-6.7c0.2,2,0.3,4,0.3,6.1&#10;&#9;&#9;&#9;&#9;&#9;&#9;c0,5.2-0.7,10.3-2,15.1L1060.6,370.8z"/>
				</g>
				<g>
					<path fill="#FFFFFF" d="M1157.8,267.4h-65.1c-1.6,0-3.1-0.7-3.7-1.9l-12.6-24.8c-1.5-2.9-4.8-4.8-8.5-4.8H954.2&#10;&#9;&#9;&#9;&#9;&#9;&#9;c-3.7,0-7.1,1.9-8.5,4.8L933,265.6c-0.6,1.1-2,1.9-3.7,1.9h-65.1c-5.2,0-9.3,3.7-9.3,8.2v165.6c0,3.2,2.6,5.8,5.8,5.8h78&#10;&#9;&#9;&#9;&#9;&#9;&#9;c1.4,0,2.7-1,2.9-2.4c0.2-1.6-1.1-3-2.7-3H864c-2,0-3.6-1.6-3.6-3.6V275.6c0-1.5,1.8-2.7,3.9-2.7h65.1c3.7,0,7.1-1.9,8.5-4.8&#10;&#9;&#9;&#9;&#9;&#9;&#9;l12.6-24.8c0.6-1.1,2-1.9,3.7-1.9h113.7c1.6,0,3.1,0.7,3.7,1.9l12.6,24.8c1.5,2.9,4.8,4.8,8.5,4.8h65.1c2.1,0,3.9,1.2,3.9,2.7&#10;&#9;&#9;&#9;&#9;&#9;&#9;v162.4c0,2-1.6,3.6-3.6,3.6h-72.7c-1.4,0-2.7,1-2.9,2.4c-0.2,1.6,1.1,3,2.7,3h76.2c3.2,0,5.8-2.6,5.8-5.8V275.6&#10;&#9;&#9;&#9;&#9;&#9;&#9;C1167.1,271.1,1162.9,267.4,1157.8,267.4z"/>
					<path fill="#FFFFFF" d="M1116.8,352.6c0-58.3-47.4-105.7-105.7-105.7c-58.3,0-105.7,47.4-105.7,105.7&#10;&#9;&#9;&#9;&#9;&#9;&#9;c0,58.3,47.4,105.7,105.7,105.7C1069.3,458.4,1116.8,410.9,1116.8,352.6z M1011,451.1c-54.3,0-98.5-44.2-98.5-98.5&#10;&#9;&#9;&#9;&#9;&#9;&#9;c0-54.3,44.2-98.5,98.5-98.5c54.3,0,98.5,44.2,98.5,98.5C1109.5,406.9,1065.3,451.1,1011,451.1z"/>
					<path fill="#FFFFFF" d="M1011,260.3c-2,0-3.6,1.6-3.6,3.6c0,2,1.6,3.6,3.6,3.6c46.9,0,85.1,38.2,85.1,85.1c0,2,1.6,3.6,3.6,3.6&#10;&#9;&#9;&#9;&#9;&#9;&#9;c2,0,3.6-1.6,3.6-3.6C1103.4,301.7,1062,260.3,1011,260.3z"/>
					<path fill="#FFFFFF" d="M1099.3,362.8c-2-0.3-3.8,1-4.1,3c-0.6,3.7-1.4,7.5-2.5,11.1c-1.2,3.9-2.6,7.8-4.3,11.5&#10;&#9;&#9;&#9;&#9;&#9;&#9;c-0.8,1.8-0.1,4,1.8,4.8c0.5,0.2,1,0.3,1.5,0.3c1.4,0,2.7-0.8,3.3-2.1c1.9-4,3.5-8.2,4.7-12.5c1.2-3.9,2.1-8,2.7-12&#10;&#9;&#9;&#9;&#9;&#9;&#9;C1102.6,365,1101.2,363.1,1099.3,362.8z"/>
				</g>
			</g>
			<path d="M 896.200025 293.799988 A 10.3 10.3 0 0 1 885.900024 304.099988 A 10.3 10.3 0 0 1 875.600024 293.799988 A 10.3 10.3 0 0 1 885.900024 283.499988 A 10.3 10.3 0 0 1 896.200025 293.799988 Z" fill="#FFFFFF"/>
			<path fill="#FFFFFF" d="M1145.3,296.5h-14.2c-3.9,0-7.1-3.2-7.1-7.1v-0.5c0-3.9,3.2-7.1,7.1-7.1h14.2c3.9,0,7.1,3.2,7.1,7.1v0.5&#10;&#9;&#9;&#9;&#9;C1152.4,293.3,1149.2,296.5,1145.3,296.5z"/>
		</g><text transform="matrix(1, 0, 0, 1, 11.283098220825195, 348.92340087890625)" style="white-space: pre;"><tspan x="0" y="0" fill="#FFFFFF" font-family="'RobotoCondensed-Bold'" font-size="62.5141px">PH</tspan><tspan x="73.9" y="0" fill="#FFFFFF" font-family="'RobotoCondensed-Bold'" font-size="62.5141px" letter-spacing="-2">O</tspan><tspan x="109.1" y="0" fill="#FFFFFF" font-family="'RobotoCondensed-Bold'" font-size="62.5141px">T</tspan><tspan x="142.2" y="0" fill="#FFFFFF" font-family="'RobotoCondensed-Bold'" font-size="62.5141px">O STUDIO</tspan></text><text transform="matrix(1, 0, 0, 1, 73.63960266113281, 382.19781494140625)" style="white-space: pre;"><tspan x="0" y="0" fill="#FFFFFF" font-family="'RobotoCondensed-Regular'" font-size="31.111px" letter-spacing="6">PH</tspan><tspan x="49" y="0" fill="#FFFFFF" font-family="'RobotoCondensed-Regular'" font-size="31.111px" letter-spacing="5">O</tspan><tspan x="73.5" y="0" fill="#FFFFFF" font-family="'RobotoCondensed-Regular'" font-size="31.111px" letter-spacing="5">T</tspan><tspan x="95.5" y="0" fill="#FFFFFF" font-family="'RobotoCondensed-Regular'" font-size="31.111px" letter-spacing="6">OGRAP</tspan><tspan x="215.3" y="0" fill="#FFFFFF" font-family="'RobotoCondensed-Regular'" font-size="31.111px" letter-spacing="5">H</tspan><tspan x="240.4" y="0" fill="#FFFFFF" font-family="'RobotoCondensed-Regular'" font-size="31.111px" letter-spacing="6">Y</tspan></text>
</svg>